<?xml version='1.0' encoding='utf-8'?>
<svg xmlns="http://www.w3.org/2000/svg" version="1.1" width="600px" height="976px" viewBox="0 0 600 976"> <g id="layer1"> <g style="fill:rgb(250,187,155); fill-opacity:1.0; stroke-linejoin: miter"> <path d="M415.08417,410.1573L414.3415,408.9817L413.2932,407.8954L412.89334,407.3961Q412.65472,407.08914,412.42804,406.71582Q411.83316,405.6195,411.80542,405.61758Q411.57208,405.29132,411.5091,405.2432Q410.94174,404.6984,410.01163,404.59723Q408.6988,404.26596,406.57416,405.48434Q404.35947,406.75244,404.96094,407.5298Q405.15787,407.77295,405.3773,407.79745Q405.64224,407.8618,406.20847,407.5464L406.77258,407.79172Q405.477,408.47406,405.98743,408.76187Q406.19122,408.81558,406.56476,408.64658Q406.98062,408.46487,407.84003,407.94205Q408.48422,408.25217,408.76068,408.32843Q409.04523,408.41873,409.5228,408.44162Q409.72754,408.49167,409.87598,408.56958Q410.0906,408.68845,410.2246,408.80002Q411.3665,409.8066,411.53046,409.89313Q411.96173,410.18356,412.4709,410.34665L413.2146,411.5702L415.08417,410.1573"/> </g> <g style="fill:rgb(250,187,155); fill-opacity:1.0; stroke-linejoin: miter"> <path d="M400.81335,410.07867L402.3455,406.74957Q403.69,403.60187,403.88467,403.55896L404.00894,403.46014L404.72617,403.0534Q405.47998,402.70782,405.8205,402.5092L407.97418,401.24368Q408.28018,401.07483,408.4105,401.04846Q408.75546,401.04733,408.6343,401.5407Q408.51257,401.81488,408.02197,402.1295Q408.75134,402.62946,409.15845,402.88547L410.02423,403.39502Q410.16827,403.4897,410.25528,403.60828Q410.49667,403.88425,410.24106,404.944L405.31314,407.8303Q404.9172,408.48813,404.71918,408.6581Q404.52112,408.85645,404.12512,408.93503L403.46994,410.82687L400.81335,410.07867"/> </g> <g style="fill:rgb(255,255,255); fill-opacity:1.0; stroke-linejoin: miter"> <path d="M413.1091,412.58255L412.68185,411.9036L412.2546,411.22467L415.42227,409.14484L416.42917,410.62552L413.1091,412.58255"/> </g> <g style="fill:rgb(255,255,255); fill-opacity:1.0; stroke-linejoin: miter"> <path d="M399.964,411.00937L400.27188,410.3483L400.5798,409.6872L403.94556,410.97702L403.46198,412.3446L399.964,411.00937"/> </g> <g style="fill:rgb(24,64,64); fill-opacity:1.0; stroke-linejoin: miter"> <path d="M397.0585,417.21088L398.45203,413.9319L399.84555,410.6529L403.93045,412.18393L402.06625,417.11304L397.0585,417.21088"/> </g> <g style="fill:rgb(24,64,64); fill-opacity:1.0; stroke-linejoin: miter"> <path d="M415.32022,417.02768L413.96332,414.79422L412.60638,412.56076L416.67038,409.96765L420.7393,416.9452L415.32022,417.02768"/> </g> <g style="fill:rgb(0,0,0); fill-opacity:1.0; stroke-linejoin: miter"> <path d="M405.66888,400.97546L407.64465,400.94574L409.6204,400.9161L409.71826,407.43155L405.76672,407.49084L405.66888,400.97546"/> </g> <g style="fill:rgb(255,255,255); fill-opacity:1.0; stroke-linejoin: miter"> <path d="M405.97916,401.3509L407.67377,401.326L409.3684,401.30115L409.45172,406.9838Q407.75717,407.00873,406.06253,407.03354L405.97916,401.3509"/> </g> <g style="fill:rgb(250,187,155); fill-opacity:1.0; stroke-linejoin: miter"> <path d="M409.73636,407.4374L409.78534,407.47784Q410.12323,407.75818,410.14462,407.7617Q410.00983,407.60544,409.77203,407.44064Q409.55518,407.2991,409.4984,407.27655Q409.39896,407.2257,409.29193,407.18683Q409.18552,407.14886,409.07523,407.12503Q408.99228,407.10364,408.80035,407.08517Q408.54352,407.06158,408.25253,407.1184Q408.08237,407.1569,407.9883,407.22018Q407.895,407.28354,407.85425,407.3636Q407.79724,407.48495,407.7846,407.62036L407.85535,407.8846L409.47565,407.97217L409.73636,407.4374"/> </g> <g style="fill:rgb(255,86,0); fill-opacity:0.3019608; stroke-linejoin: miter"> <path d="M405.6508,402.81665L405.64532,402.8169Q405.64,402.8174,405.63528,402.8189Q405.62396,402.82358,405.6224,402.82574Q405.62012,402.82663,405.6122,402.8371Q405.594,402.85056,405.57816,402.86517Q405.60785,402.8577,405.62512,402.8577Q405.6268,402.8577,405.62836,402.85776Q405.62955,402.8577,405.6309,402.8577Q405.63974,402.8577,405.65576,402.86063Q405.66614,402.86295,405.67557,402.86707L405.9148,403.00586Q405.8732,402.9638,405.83707,402.93112L405.80228,402.90073L405.77023,402.87506L405.7409,402.85403L405.7143,402.83768L405.6904,402.826L405.66922,402.819L405.6508,402.81665 Z M405.91675,403.00937L405.92114,403.02448Q405.938,403.08453,405.94366,403.13782L405.94415,403.1153L405.94397,403.09485L405.94308,403.0765L405.94147,403.06027L405.93918,403.04614L405.9362,403.0341L405.93246,403.02414L405.92807,403.0163L405.92294,403.01056L405.92084,403.00937 Z M405.942,403.16962L405.94113,403.18158Q405.93744,403.2303,405.92923,403.2924L405.93265,403.2924L405.93604,403.2799L405.93896,403.26712L405.9414,403.25406L405.94336,403.2407L405.94485,403.22705L405.94586,403.21313L405.9464,403.1989L405.94647,403.18442L405.94608,403.16962 Z M410.33868,403.92307Q410.28616,404.04306,410.2382,404.09937Q410.198,404.14136,410.1873,404.14508Q410.14963,404.16904,410.10367,404.1783L410.0804,404.1825Q410.05676,404.18594,410.03186,404.18716Q410.0167,404.18823,409.99228,404.18823Q409.95728,404.18823,409.9032,404.18604L409.41013,404.07742L409.47736,404.09875Q409.68222,404.16592,409.859,404.20404Q409.9169,404.21567,409.96854,404.22083L410.01822,404.22397L410.06403,404.22305L410.10553,404.2177L410.1425,404.20767L410.17517,404.19318L410.20392,404.17465Q410.23074,404.1541,410.25128,404.1271Q410.29935,404.0673,410.34277,403.92307 Z M409.4314,404.52695L409.4358,404.5802L410.26315,404.65884L409.8473,404.5929L409.4314,404.52695 Z M405.5722,402.86685L405.5691,402.86783Q405.45825,402.90915,405.29678,403.05777L405.11432,403.2924L404.66147,403.75232Q404.53955,403.85785,404.40488,403.92157L403.59283,404.83417L404.4746,404.03024Q404.4895,404.01898,404.6794,403.78256L405.0177,403.47925L405.49283,402.951Q405.55136,402.88876,405.57626,402.86685 Z M405.4416,404.46136L405.04575,405.03662L405.1419,404.9327Q405.18546,404.8787,405.22464,404.8254L405.26276,404.7723L405.29868,404.71957Q405.33353,404.66702,405.36398,404.61517Q405.39447,404.56335,405.4206,404.51227L405.44562,404.46136 Z M409.91226,405.3347L409.90814,405.3374Q409.8903,405.3495,409.8519,405.3809Q409.8204,405.41028,409.7477,405.47192L409.7507,405.47192Q409.75653,405.46844,409.7622,405.46548L409.83594,405.44107L409.91635,405.3347 Z M405.71805,404.6825L405.72183,404.71124Q405.73563,404.7879,405.74188,404.80713Q405.75958,404.8759,405.7889,404.95755L405.81808,405.03638Q405.83646,405.08044,405.87323,405.15216Q405.91846,405.26788,405.9284,405.28775Q405.96616,405.36392,405.98947,405.3877Q406.01212,405.41428,406.0782,405.47192Q406.09845,405.4928,406.11163,405.51074L406.1121,405.51074L405.7221,404.6825 Z M409.71652,405.49463L409.71518,405.4956Q409.6508,405.54114,409.60342,405.59045Q409.65497,405.5492,409.7206,405.49463 Z M409.58734,405.60336L409.5804,405.60892Q409.55338,405.63055,409.52438,405.65353L409.5257,405.65353L409.56332,405.63736Q409.57312,405.62402,409.59146,405.60336 Z M409.51382,405.65866L409.49545,405.6665Q409.493,405.66815,409.48193,405.6687Q409.47342,405.66898,409.46982,405.66898Q409.46918,405.66898,409.4687,405.66898Q409.4682,405.66898,409.46765,405.66898Q409.46326,405.66898,409.45554,405.66876L409.45145,405.66876Q409.4539,405.67178,409.45645,405.67413L409.45905,405.6763Q409.46167,405.6783,409.46445,405.67966L409.46722,405.68085L409.47006,405.68167L409.47296,405.6822L409.4759,405.68234L409.47913,405.68216L409.48242,405.68158L409.48578,405.68063L409.4892,405.6793Q409.49268,405.67776,409.49628,405.6755Q409.49988,405.67322,409.50363,405.67017Q409.50403,405.66946,409.51794,405.65866 Z M405.3739,404.9992L405.37387,405.8437L405.38858,405.77182Q405.39005,405.75674,405.39075,405.74463Q405.39124,405.73038,405.3913,405.71704L405.3912,405.3777Q405.39114,405.35812,405.39087,405.34366Q405.39017,405.31454,405.38892,405.293Q405.3814,405.17938,405.37885,405.12573Q405.3762,405.07266,405.37543,405.05338Q405.37506,405.04578,405.37427,405.01828Q405.374,405.00787,405.3739,404.9992 Z M404.99567,405.4526L404.9761,405.4626L404.957,405.48196L404.93842,405.51074L404.9203,405.54895L404.90268,405.59653L404.88553,405.65353L404.86887,405.71994L404.8527,405.79575L404.837,405.88098Q404.83594,405.88272,404.8347,405.88882Q404.83185,405.897,404.82376,405.98495L404.99973,405.4526 Z M410.93246,406.0327L410.93063,406.0329L410.92853,406.03342L410.92618,406.03433L410.92355,406.03558L410.92072,406.03717Q410.91473,406.04074,410.90674,406.04718Q410.91348,406.04477,410.9204,406.04263L410.9239,406.0416Q410.92737,406.04056,410.9309,406.0396Q410.93445,406.03864,410.93805,406.03775Q410.93784,406.03662,410.93744,406.03577Q410.93704,406.03488,410.93646,406.03427L410.93582,406.03372Q410.9345,406.0327,410.93246,406.0327 Z M405.02966,405.05408L404.96677,405.1229Q404.7281,405.3855,404.69626,405.44437Q404.671,405.49323,404.6451,405.55066Q404.57977,405.70172,404.56595,405.74225Q404.51343,405.87973,404.45844,406.05005L404.4618,406.05005Q404.49017,406.01093,404.57318,405.86975Q404.60846,405.80643,404.63864,405.74228Q404.69907,405.61392,404.73917,405.48212L405.0337,405.05408 Z M405.37387,405.8437L405.37286,405.8485Q405.37024,405.8658,405.36987,405.87018Q405.369,405.878,405.36823,405.88657Q405.36673,405.90228,405.36554,405.9268Q405.36517,405.93594,405.36514,405.95203L405.36526,406.0354Q405.36533,406.0437,405.3656,406.0515Q405.36636,406.06857,405.36676,406.07385L405.367,406.07712L405.37277,406.1284Q405.37366,406.13815,405.37387,406.15643L405.37387,405.8437 Z M404.44565,406.07257L404.4414,406.07858Q404.42444,406.10263,404.4067,406.12653Q404.39398,406.13922,404.37466,406.15677Q404.27545,406.24484,404.1589,406.3391Q404.22272,406.3066,404.2676,406.2863Q404.29056,406.2721,404.33084,406.2375Q404.3528,406.2176,404.3695,406.19708Q404.39996,406.15622,404.404,406.14963Q404.4244,406.11996,404.43793,406.0956Q404.44467,406.08344,404.4497,406.07257 Z M409.70715,406.01193L409.721,406.0292Q409.7838,406.10834,409.82242,406.17978Q409.84537,406.22223,409.84842,406.2304Q409.86386,406.26376,409.87415,406.2961Q409.91226,406.35574,409.92853,406.38678L409.9319,406.38678L409.92404,406.36295L409.90222,406.30487L409.87903,406.25085L409.85446,406.20087L409.82855,406.15497L409.80127,406.11313L409.7726,406.07535L409.7426,406.0416L409.71124,406.01193 Z M404.14777,406.34488L404.11017,406.36493Q404.0364,406.40527,403.9746,406.4466Q403.9437,406.46725,403.9158,406.48816Q403.88788,406.50906,403.86298,406.53024L403.86697,406.53024Q403.89044,406.519,403.917,406.50565Q403.94278,406.49295,404.01758,406.45328Q404.0763,406.4063,404.1518,406.34488 Z M403.77484,406.56934L403.7663,406.57166Q403.7316,406.58063,403.69107,406.58472Q403.69125,406.58542,403.69434,406.58743Q403.69705,406.58887,403.70114,406.58932Q403.7032,406.58957,403.70557,406.58957L403.71082,406.58932L403.7168,406.58856L403.7235,406.5873L403.73093,406.58557L403.73907,406.5833L403.74796,406.58057L403.75754,406.57733Q403.7675,406.57382,403.77887,406.56934 Z M409.95074,406.47952L409.9513,406.49368Q409.95322,406.5536,409.95233,406.6648L409.94006,406.78033L409.94406,406.78033Q409.94666,406.763,409.94916,406.74286L409.9526,406.7134Q409.95602,406.68256,409.95923,406.64624Q409.96246,406.60992,409.96548,406.56815Q409.96353,406.5457,409.9612,406.52567Q409.95703,406.49152,409.95486,406.47952 Z M406.07852,406.64597L406.0347,406.71573L405.99084,406.7855L405.99866,406.7762L406.07852,406.64597 Z M405.0873,406.63757L405.08698,406.6376Q405.0857,406.63782,405.0841,406.63983Q405.08032,406.69125,405.08032,406.7372Q405.08032,406.78317,405.0841,406.82367L405.08887,406.8628L405.09552,406.8992L405.1041,406.93286L405.11456,406.96378L405.12692,406.99197Q405.141,407.01233,405.1621,407.02585Q405.18347,407.04126,405.225,407.06497Q405.24002,407.07294,405.30545,407.08795L405.30716,407.08795Q405.29068,407.08063,405.27997,407.07074L405.27725,407.0681Q405.25543,407.03296,405.24905,407.02682Q405.23843,407.0136,405.22617,407.00116Q405.2016,406.9762,405.1704,406.95422Q405.14005,406.91623,405.12796,406.8925Q405.11746,406.87054,405.1097,406.82703L405.09503,406.66327Q405.09152,406.63913,405.0873,406.63757 Z M405.31415,407.09082L405.3159,407.0915Q405.3228,407.0941,405.3307,407.09628Q405.3368,407.09857,405.3429,407.10056Q405.34903,407.10254,405.35516,407.10425Q405.3674,407.10764,405.3797,407.10983L405.38583,407.11087L405.35492,407.0988Q405.33105,407.09372,405.3182,407.09082 Z M405.38815,407.1118L405.4075,407.11935Q405.41043,407.11893,405.4211,407.11716L405.42853,407.11588Q405.43533,407.11465,405.43954,407.11374L405.4355,407.11374Q405.43158,407.11392,405.4255,407.11395Q405.4218,407.11395,405.4181,407.11383L405.4144,407.1137Q405.4033,407.11322,405.3922,407.1118 Z M409.37848,407.21402L409.37842,407.21405L409.3784,407.21405Q409.3783,407.21408,409.37823,407.2141L409.3793,407.2141Q409.37915,407.21408,409.37897,407.21405L409.3789,407.21405L409.37885,407.21402 Z M409.3805,407.21545Q409.38022,407.21545,409.38004,407.2155L409.38116,407.2155Q409.38077,407.21545,409.3805,407.21545 Z M410.89917,406.05005L410.88922,406.05414Q410.85968,406.067,410.83423,406.08597L410.66046,406.2215Q410.63596,406.24515,410.6276,406.2739Q410.60806,406.3667,410.5733,406.489L410.48804,407.23367Q410.4853,407.25412,410.4726,407.31195L410.4766,407.31195L410.5322,407.09158Q410.53986,407.0378,410.54303,406.99283Q410.54666,406.95663,410.54388,406.8942L410.546,406.87164Q410.55338,406.79114,410.56985,406.6961Q410.58344,406.62085,410.64618,406.42404Q410.7058,406.27444,410.74326,406.2225Q410.84494,406.10098,410.9033,406.05005 Z M410.3984,406.20337L410.38922,406.23337Q410.35437,406.35294,410.3496,406.50537Q410.3493,406.52457,410.35208,406.59134L410.3496,406.80807Q410.3495,406.82306,410.35114,406.84232Q410.36475,406.92233,410.38843,406.99295Q410.39224,407.0093,410.39993,407.0551Q410.40533,407.08856,410.40665,407.10345L410.41006,407.18723L410.4172,407.25336Q410.41745,407.264,410.41577,407.29282L410.4164,407.31195Q410.41617,407.31836,410.41467,407.32947Q410.41168,407.34976,410.38824,407.41956Q410.38544,407.4307,410.38245,407.46686L410.38602,407.46686Q410.3878,407.46292,410.39032,407.4566Q410.41296,407.38266,410.4241,407.35434Q410.43848,407.31537,410.45422,407.27957L410.46808,407.1542Q410.46826,407.1532,410.4678,407.14847Q410.467,407.14282,410.46423,407.1376Q410.44278,407.10742,410.44186,407.1006L410.44196,407.09924Q410.43976,407.09006,410.4389,407.0819Q410.43085,406.9981,410.42953,406.9941L410.4064,406.90805Q410.4057,406.90167,410.40576,406.90033Q410.40546,406.8924,410.40656,406.8838L410.41653,406.82245Q410.41718,406.81796,410.41727,406.78033L410.4204,406.74374Q410.4081,406.67734,410.40747,406.65097Q410.40524,406.6393,410.4005,406.6286L410.3984,406.20337 Z M410.38202,407.47205Q410.38196,407.47336,410.38232,407.47336Q410.3827,407.47336,410.38348,407.47205 Z M405.99084,406.7855L405.87552,406.92276Q405.86844,406.92853,405.85446,406.93356Q405.78894,406.94736,405.77496,406.95428Q405.6712,407.0227,405.6605,407.02542Q405.50595,407.08414,405.49765,407.08414Q405.49738,407.08414,405.49725,407.08408L405.44568,407.11206Q405.4444,407.11264,405.44067,407.1135Q405.458,407.11246,405.4754,407.1091Q405.48697,407.10754,405.52194,407.09637Q405.53555,407.09192,405.62396,407.05573L405.62802,407.05573L405.5701,407.0853L405.42282,407.22772L405.4038,407.2446Q405.3278,407.31042,405.2509,407.35004Q405.22098,407.37515,405.19348,407.41037Q405.1743,407.43698,405.15033,407.48297L405.1854,407.45682Q405.32593,407.3989,405.34622,407.38556Q405.3623,407.37842,405.38678,407.3589Q405.41843,407.32898,405.46292,407.27377Q405.49677,407.24857,405.51865,407.22797Q405.5994,407.12845,405.63495,407.08795Q405.6829,407.03262,405.7096,407.0161L405.70554,407.0161L405.64764,407.0457L405.77145,406.97055Q405.78513,406.96243,405.9061,406.91534Q405.91193,406.91208,405.91504,406.90692L405.99084,406.7855 Z M405.14346,407.4884L405.13876,407.49225Q405.12555,407.5032,405.12366,407.50723L405.12332,407.5084L405.12363,407.50916Q405.1221,407.51337,405.1208,407.51807L405.11957,407.52286Q405.11838,407.52774,405.11746,407.5331Q405.11557,407.54382,405.1147,407.55634Q405.1357,407.51096,405.14755,407.4884 Z M410.9668,406.78238L410.95917,406.80338Q410.9292,406.88477,410.90784,406.92346Q410.9072,406.93164,410.85403,407.071L410.78772,407.2432L410.77676,407.26797Q410.7314,407.36743,410.62622,407.55542L410.62622,407.55542L410.50815,407.5402L410.24362,407.49887L409.91507,407.42853Q409.89966,407.42465,409.81714,407.38977Q409.79666,407.3838,409.77847,407.3784L409.77438,407.3784L409.91162,407.04892L409.93222,406.85446L409.92816,406.85446L409.9202,406.87497Q409.88467,406.9729,409.76974,407.3758L409.76974,407.3758Q409.70563,407.35666,409.67178,407.34518Q409.42117,407.22797,409.38562,407.21667L409.38153,407.21667L409.41656,407.2437Q409.55862,407.35162,409.63528,407.38162L409.88574,407.4493L409.9916,407.47375L410.05634,407.4963L410.12775,407.50885Q410.1307,407.5088,410.13373,407.5088Q410.1656,407.5088,410.20734,407.5155Q410.21402,407.51584,410.22174,407.52377L410.6287,407.55835L410.6246,407.55835Q410.6232,407.56085,410.62177,407.5634L410.62512,407.5634L410.62912,407.55838L410.62912,407.55838L410.688,407.5634L410.63098,407.55603L410.63098,407.55603L410.8233,407.3138L410.8754,407.23096Q410.8859,407.18146,410.89865,407.13614Q410.92178,407.0583,410.9341,407.02936Q410.93506,407.02853,410.94092,407.00305Q410.95047,406.95734,410.96317,406.85434L410.9709,406.78238 Z M404.81827,406.0015L404.62616,406.5828L404.62576,407.1488L404.5784,407.3498Q404.56396,407.39597,404.54932,407.4326L404.5346,407.46686Q404.4584,407.59546,404.40823,407.70248L404.51254,407.53793Q404.51678,407.52725,404.65247,407.41318Q404.67166,407.3916,404.69293,407.33365Q404.70007,407.31458,404.7118,407.21L404.7261,406.86115L404.79184,406.44788Q404.80704,406.19318,404.82236,406.0015 Z M405.11005,407.56644L405.10727,407.5726L405.08417,407.62534L405.08093,407.62973Q405.07846,407.6358,405.0791,407.6485Q405.0804,407.67395,405.0941,407.72598L405.11264,407.79083Q405.1166,407.80295,405.12366,407.81366Q405.12692,407.82,405.14838,407.84232Q405.15744,407.85052,405.17258,407.85687L405.18927,407.86273Q405.20746,407.86813,405.23178,407.87167L405.2576,407.87473Q405.28494,407.87732,405.3184,407.87805L405.3202,407.8764Q405.3208,407.87576,405.32028,407.87384Q405.3155,407.87146,405.30743,407.85855Q405.3036,407.85153,405.2988,407.83786L405.2944,407.83197Q405.28775,407.8246,405.28326,407.8209L405.2837,407.81985L405.28107,407.8176Q405.2806,407.81436,405.1771,407.7669Q405.16385,407.75906,405.15424,407.7457Q405.13168,407.7118,405.12106,407.67322Q405.11282,407.6163,405.11407,407.56644 Z M404.39206,407.72803L404.38083,407.74567Q404.35983,407.77026,404.32834,407.79733Q404.3126,407.81085,404.29422,407.825L404.27518,407.8393Q404.25546,407.85373,404.23315,407.8688Q404.2574,407.8876,404.2805,407.8876Q404.3035,407.8876,404.32538,407.86893Q404.33167,407.8636,404.33786,407.85672Q404.36072,407.80356,404.39612,407.72803 Z"/> </g> </g> </svg>